<svg width="500" height="500" viewBox="0 0 500 500" fill="none" xmlns="http://www.w3.org/2000/svg">
<path d="M432.293 123.047C429.347 121.374 426.431 119.662 423.531 117.91C392.314 99.0451 246.428 13.5021 188.303 26.2921C123.04 40.6531 -1.89196 266.86 38.188 328.554C78.267 390.248 264.186 489.314 310.181 468.227C356.177 447.14 469.159 242.352 473.852 193.679C477.859 152.12 442.666 128.936 432.293 123.047Z" fill="#00AAFF"/>
<path opacity="0.7" d="M432.293 123.047C429.347 121.374 426.431 119.662 423.531 117.91C392.314 99.0451 246.428 13.5021 188.303 26.2921C123.04 40.6531 -1.89196 266.86 38.188 328.554C78.267 390.248 264.186 489.314 310.181 468.227C356.177 447.14 469.159 242.352 473.852 193.679C477.859 152.12 442.666 128.936 432.293 123.047Z" fill="white"/>
</svg>
